<?xml version="1.0" encoding="utf-8"?>
<!-- Generator: Adobe Illustrator 23.0.2, SVG Export Plug-In . SVG Version: 6.00 Build 0)  -->
<svg version="1.1" id="Layer_1" xmlns="http://www.w3.org/2000/svg" xmlns:xlink="http://www.w3.org/1999/xlink" x="0px" y="0px"
	 viewBox="0 0 123 123" style="enable-background:new 0 0 123 123;" xml:space="preserve">
<style type="text/css">
	.st0{fill:#4E4E4E;}
	.st1{fill:none;stroke:#4E4E4E;stroke-width:9;stroke-miterlimit:10;}
</style>
<title>stor</title>
<path class="st0" d="M115,8v107H8V8H115 M123,0H0v123h123V0z"/>
<g>
	<line class="st1" x1="82.4" y1="18.1" x2="107.9" y2="18.1"/>
	<line class="st1" x1="103.7" y1="39" x2="103.7" y2="13.5"/>
</g>
<line class="st1" x1="102.3" y1="19.6" x2="72.8" y2="49.2"/>
<line class="st1" x1="21.6" y1="103.9" x2="51.2" y2="74.4"/>
<line class="st1" x1="102.7" y1="103.8" x2="73.2" y2="74.2"/>
<line class="st1" x1="20.3" y1="20" x2="49.9" y2="49.6"/>
<g>
	<line class="st1" x1="40.4" y1="105" x2="14.9" y2="105"/>
	<line class="st1" x1="19.1" y1="84.2" x2="19.1" y2="109.6"/>
</g>
<g>
	<line class="st1" x1="104.2" y1="83.4" x2="104.2" y2="108.9"/>
	<line class="st1" x1="83.4" y1="104.7" x2="108.8" y2="104.7"/>
</g>
<g>
	<line class="st1" x1="18.2" y1="40" x2="18.2" y2="14.5"/>
	<line class="st1" x1="39.1" y1="18.7" x2="13.6" y2="18.7"/>
</g>
</svg>
