<svg id="Layer_1" data-name="Layer 1" xmlns="http://www.w3.org/2000/svg" width="807" height="810" viewBox="0 0 807 810"><defs><style>.cls-1,.cls-3{fill:none;stroke:#4c4c4c;}.cls-1{stroke-width:20px;}.cls-2{fill:#4c4c4c;}.cls-3{stroke-width:18px;}</style></defs><title>radio_button</title><circle class="cls-1" cx="403.5" cy="405" r="383.25"/><circle class="cls-2" cx="405.5" cy="405" r="16.25"/><circle class="cls-3" cx="405.5" cy="405" r="115.75"/><path class="cls-3" d="M89.33,414.4c-.89-18.86-4.61-141.56,93-237,95.1-93,213.63-89,233-88"/><path class="cls-3" d="M721.38,392.5c.89,18.86,4.62,141.56-93,237-95.09,93-213.63,89-233,88"/><path class="cls-3" d="M159,407c-.23-15.83-.05-109.06,75-182,70.06-68.09,155.47-70,173-70"/><path class="cls-3" d="M653,403.33c.23,15.83,0,109.07-75,182-70.07,68.09-155.47,70-173,70"/><path class="cls-3" d="M224,403c.44-13.36,4-80.07,59-132,47.16-44.53,102.27-50,118-51"/><path class="cls-3" d="M588.33,405c-.43,13.36-4,80.07-59,132-47.16,44.53-102.27,50-118,51"/></svg>